<?xml version="1.0" encoding="utf-8"?>
<!-- Generator: Adobe Illustrator 26.0.1, SVG Export Plug-In . SVG Version: 6.00 Build 0)  -->
<svg version="1.1" id="Layer_1" xmlns="http://www.w3.org/2000/svg" xmlns:xlink="http://www.w3.org/1999/xlink" x="0px" y="0px"
	 viewBox="0 0 181.1 52" style="enable-background:new 0 0 181.1 52;" xml:space="preserve">
<style type="text/css">
	.st0{fill-rule:evenodd;clip-rule:evenodd;fill:#E63035;}
	.st1{fill-rule:evenodd;clip-rule:evenodd;fill:#FFFFFF;}
	.st2{fill-rule:evenodd;clip-rule:evenodd;fill:#E68C2C;}
	.st3{fill:#E68C2C;}
	.st4{fill:#E6259E;}
	.st5{fill:#E65235;}
	.st6{fill:#E63035;}
</style>
<path id="green-dots_00000004524653575804614050000016965387524853303200_" class="st0" d="M175.9,34.4c2.4,0,4.3,1.9,4.3,4.3
	c0,2.4-1.9,4.3-4.3,4.3s-4.3-1.9-4.3-4.3C171.5,36.4,173.5,34.4,175.9,34.4z"/>
<path id="white-logo_00000003786302182357267670000011695738006710290053_" class="st1" d="M96.1,8.8c-9.6,0-17.4,7.8-17.4,17.4
	s7.8,17.4,17.4,17.4s17.4-7.8,17.4-17.4S105.7,8.8,96.1,8.8z M96.1,34.6c-4.6,0-8.4-3.8-8.4-8.4s3.8-8.4,8.4-8.4s8.4,3.8,8.4,8.4
	S100.8,34.6,96.1,34.6z M57.1,8.8c-9.6,0-17.4,7.8-17.4,17.4v25.1c0,0.4,0.3,0.7,0.7,0.7H48c0.4,0,0.7-0.3,0.7-0.7v-9.9
	c2.5,1.4,5.4,2.2,8.4,2.2c9.6,0,17.4-7.8,17.4-17.4S66.7,8.8,57.1,8.8z M57.1,34.6c-4.6,0-8.4-3.8-8.4-8.4s3.8-8.4,8.4-8.4
	s8.4,3.8,8.4,8.4S61.7,34.6,57.1,34.6z M133.1,0h7.5c0.4,0,0.7,0.3,0.7,0.7v40.8c0,0.4-0.3,0.7-0.7,0.7h-7.5c-0.4,0-0.7-0.3-0.7-0.7
	V0.7C132.3,0.3,132.7,0,133.1,0z M118.3,0h7.5c0.4,0,0.7,0.3,0.7,0.7v40.8c0,0.4-0.3,0.7-0.7,0.7h-7.5c-0.4,0-0.7-0.3-0.7-0.7V0.7
	C117.6,0.3,117.9,0,118.3,0z M18.3,8.8c-9.6,0-17.4,7.8-17.4,17.4s7.8,17.4,17.4,17.4s17.4-7.8,17.4-17.4
	C35.6,16.6,27.9,8.8,18.3,8.8z M18.3,34.6c-4.6,0-8.4-3.8-8.4-8.4s3.8-8.4,8.4-8.4s8.4,3.8,8.4,8.4C26.7,30.8,22.9,34.6,18.3,34.6z
	 M170,38.8c0-3.2,2.6-5.9,5.9-5.9c0.9,0,1.8,0.2,2.6,0.6c1-2.2,1.6-4.7,1.6-7.4c0-9.6-7.8-17.4-17.4-17.4c-9.6,0-17.4,7.8-17.4,17.4
	s7.8,17.4,17.4,17.4c2.9,0,5.6-0.7,8-1.9C170.3,40.8,170,39.8,170,38.8L170,38.8z M162.8,34.6c-4.6,0-8.4-3.8-8.4-8.4
	s3.8-8.4,8.4-8.4c4.6,0,8.4,3.8,8.4,8.4S167.4,34.6,162.8,34.6z"/>
<path id="green-dots_00000160178391585004154250000013753352922970648707_" class="st2" d="M184,123.5c2.4,0,4.3,1.9,4.3,4.3
	c0,2.4-1.9,4.3-4.3,4.3c-2.4,0-4.3-1.9-4.3-4.3C179.6,125.5,181.6,123.5,184,123.5z"/>
<rect x="-201.4" y="-30.3" class="st3" width="23.3" height="23.3"/>
<rect x="-169.7" y="-30.3" class="st4" width="23.3" height="23.3"/>
<rect x="-135.4" y="-30.3" class="st5" width="23.3" height="23.3"/>
<rect x="-104.6" y="-30.3" class="st6" width="23.3" height="23.3"/>
<rect x="3310.3" y="60.9" class="st3" width="23.3" height="23.3"/>
<image style="overflow:visible;" width="1366" height="768" xlink:href="862983E.jpg"  transform="matrix(1 0 0 1 -1065.0428 1249.4286)">
</image>
</svg>
