<?xml version="1.0" encoding="utf-8"?>
<!-- Generator: Adobe Illustrator 26.0.1, SVG Export Plug-In . SVG Version: 6.00 Build 0)  -->
<svg version="1.1" id="Layer_1" xmlns="http://www.w3.org/2000/svg" xmlns:xlink="http://www.w3.org/1999/xlink" x="0px" y="0px"
	 viewBox="0 0 24 24" style="enable-background:new 0 0 24 24;" xml:space="preserve">
<style type="text/css">
	.st0{fill:#E63035;}
</style>
<path d="M-29.3,39.7l-1.1-1.1l3.8-3.8h-12.1v-1.5h12.1l-3.8-3.8l1.1-1.1l5.7,5.7L-29.3,39.7z"/>
<path class="st0" d="M12.4,6.5c-3.2,0-5.8,2.6-5.8,5.8c0,3.2,2.6,5.8,5.8,5.8s5.8-2.6,5.8-5.8C18.2,9.1,15.6,6.5,12.4,6.5z M15,12.4
	l-4,2.3c-0.1,0.1-0.3,0-0.3-0.2V10c0-0.1,0.1-0.2,0.3-0.2l4,2.3C15.2,12.2,15.2,12.4,15,12.4z"/>
</svg>
